<?xml version="1.0" standalone="no"?><!DOCTYPE svg PUBLIC "-//W3C//DTD SVG 1.1//EN" "http://www.w3.org/Graphics/SVG/1.1/DTD/svg11.dtd"><svg t="1767533202457" class="icon" viewBox="0 0 1024 1024" version="1.1" xmlns="http://www.w3.org/2000/svg" p-id="9588" xmlns:xlink="http://www.w3.org/1999/xlink" width="200" height="200"><path d="M346.304 0h207.936c29.44 0 53.312 24 53.312 53.632 0 29.632-23.872 53.632-53.312 53.632h-205.184c-71.04 0-135.136 9.696-163.136 82.56-23.136 60.096-13.504 137.056-13.504 199.712v218.24c0 83.04-7.2 208.288 72.416 262.016 17.504 11.84 65.28 13.536 104.224 13.536h282.368c45.056 0 97.856 3.072 120.512 0.64 146.144-15.84 100.32-308.8 100.32-417.536 0-29.6 23.904-53.632 53.344-53.632s53.344 24 53.344 53.632c0 93.44 3.52 187.68-2.24 280.96-2.304 37.024-7.04 68.928-18.464 98.56-29.984 78.016-90.784 135.552-174.88 144.64-29.024 3.168-87.616 0-129.184 0h-287.872c-53.92 0-125.088 2.816-171.328-28.384-40.064-27.072-70.272-68.48-88.544-116-28.192-73.312-20.704-159.776-20.704-236.64 0-119.552-5.12-240.416 2.24-359.84 2.304-37.024 7.04-68.96 18.464-98.56 18.272-47.584 48.48-88.96 88.544-116.032C201.6 17.152 240.8 6.496 271.68 3.136 300.704 0 304.704 0 346.304 0z" p-id="9589"></path><path d="M810.08 23.168a1.312 1.312 0 0 1 2.624 0c15.04 75.392 72.608 134.272 146.24 149.696 1.408 0.288 1.408 2.368 0 2.656-73.632 15.424-131.2 74.304-146.24 149.696a1.312 1.312 0 0 1-2.624 0c-15.04-75.392-72.608-134.272-146.24-149.696-1.408-0.32-1.408-2.368 0-2.656 73.632-15.424 131.2-74.304 146.24-149.696zM766.304 623.008c0-7.68-1.984-15.2-5.76-21.76l-55.84-96.48 55.84-96.48c3.776-6.56 5.76-14.08 5.76-21.76 0-22.848-17.472-41.472-39.104-41.472h-114.912L553.6 243.584a44.288 44.288 0 0 0-38.272-22.72c-15.584 0-30.112 8.512-38.176 22.72l-58.752 101.472H303.424c-21.536 0-39.104 18.624-39.104 41.472 0 7.68 1.984 15.2 5.76 21.76l55.84 96.48-55.872 96.48c-3.744 6.56-5.76 14.08-5.76 21.76 0 22.848 17.6 41.472 39.136 41.472h114.912l58.688 101.472c8.16 14.208 22.72 22.72 38.272 22.72 15.584 0 30.112-8.512 38.176-22.72l58.784-101.472h114.912c21.536 0 39.104-18.528 39.104-41.472z m-371.648-118.24l57.92-78.88h117.568l54.976 78.88-45.568 97.6h-128.448l-56.448-97.6z m231.648 100.352l19.616-34.016 19.68 34.016h-39.328z m19.616-139.52l-19.616-34.016H665.6l-19.712 34.016z m-137.792-132.608l25.12 43.392h-50.208l25.088-43.392z m-157.44 98.592h39.296l-19.712 34.016-19.584-34.016z m-2.688 173.536l20.704-44.704 25.824 44.672h-46.528z m160.128 98.56l-25.088-43.36h50.208l-25.12 43.36z" p-id="9590"></path></svg>