<svg id="cclor_outline" height="512" viewBox="0 0 64 64" width="512" xmlns="http://www.w3.org/2000/svg"><path d="m63 3.82v.01c0 .75-.3 1.47-.83 2l-27.06 26.93-3.71-3.71 26.77-27.21c.53-.54 1.26-.84 2.01-.84.78 0 1.48.32 2 .82.5.52.82 1.22.82 2z" fill="#d98555"/><path d="m61.17 1.84-25.379 25.796c-.77.783-.765 2.04.011 2.817l.807.807-1.5 1.5-3.71-3.71 26.771-27.21c.53-.54 1.26-.84 2.01-.84.55 0 1.06.16 1.5.43-.18.12-.36.25-.51.41z" fill="#a36440"/><path d="m37.89 35.54c1.03 1.02 1.03 2.69 0 3.71-1.02 1.02-2.68 1.02-3.7 0l-.73-.73-1.26-1.26-2.66-2.65-2.73-2.73-1.81-1.81-.09-.09c-.51-.52-.77-1.19-.77-1.86s.26-1.34.77-1.85c1.03-1.03 2.69-1.03 3.71 0l2.78 2.78 3.71 3.71z" fill="#ab04d9"/><path d="m21 10-3.33 1.67-1.67 3.33-1.67-3.33-3.33-1.67 3.33-1.67 1.67-3.33 1.67 3.33z" fill="#ab04d9"/><path d="m19 22-5.33 2.67-2.67 5.33-2.67-5.33-5.33-2.67 5.33-2.67 2.67-5.33 2.67 5.33z" fill="#f2ac57"/><path d="m32.2 37.26 1.26 1.26c-.74 15.97-13.27 21.52-21.89 23.45-2.32.52-4.35.78-5.79.91-1.43.12-2.28.12-2.28.12h-.5c-1.1 0-2-.9-2-2v-1s0-28.44 24-29.93l1.81 1.81 2.73 2.73z" fill="#f2ac57"/><path d="m33.46 38.52c-.74 15.97-13.27 21.52-21.89 23.45-2.32.52-4.35.78-5.79.91-1.43.12-2.28.12-2.28.12h-.5c-1.1 0-2-.9-2-2v-1s0-1.21.21-3.16c.24.1.51.16.79.16h.5s.85 0 2.28-.12c1.44-.13 3.47-.39 5.79-.91 7.77-1.74 18.71-6.42 21.33-19.01l.3.3z" fill="#e89438"/><g><path d="m64 3.819c0-2.106-1.713-3.819-3.819-3.819-1.017 0-2.009.416-2.722 1.141l-26.062 26.487-2.069-2.07c-1.413-1.413-3.713-1.411-5.124 0-.993.993-1.273 2.42-.87 3.673-23.047 2.674-23.334 30.482-23.334 30.769v1c0 1.654 1.346 3 3 3h.5c.29 0 28.2-.284 30.793-23.45.543.3 1.142.466 1.747.466.928 0 1.855-.354 2.562-1.06 1.413-1.413 1.413-3.711 0-5.124l-2.073-2.074 26.346-26.223c.715-.711 1.125-1.697 1.125-2.716zm-51.508 56.955c-.023-1.913.628-3.219 1.954-3.879.494-.247.695-.847.449-1.342-.246-.493-.845-.695-1.342-.449-2.123 1.058-3.176 3.219-3.037 6.115-1.423.281-2.706.459-3.783.574-.068-2.879.831-9.114 4.848-11.979.449-.321.554-.945.233-1.396-.321-.449-.944-.552-1.396-.233-4.757 3.393-5.777 10.456-5.678 13.772-.67.037-1.115.043-1.24.043h-.5c-.552 0-1-.448-1-1v-.999c.001-1.116.298-27.167 22.632-28.89l.429.429c-2.607 1.13-6.277 2.872-8.661 4.66-.442.331-.532.958-.2 1.399.196.263.496.4.801.4.209 0 .419-.065.599-.2 2.46-1.845 6.472-3.677 8.984-4.737l1.391 1.391c-3.584 2.396-9.048 6.205-11.682 8.839-.391.391-.391 1.023 0 1.414.195.196.451.294.707.294s.512-.098.707-.293c2.598-2.597 8.205-6.478 11.71-8.811l1.141 1.141c-.312.499-.662 1.075-1.043 1.702-1.525 2.51-3.614 5.947-5.222 7.555-.391.391-.391 1.023 0 1.414.195.194.451.292.707.292s.512-.098.707-.293c1.777-1.777 3.851-5.188 5.517-7.931.28-.461.543-.893.786-1.288l.415.415c-.884 14.42-11.762 19.839-19.933 21.871zm24.696-22.231c-.633.633-1.662.633-2.295 0l-9.274-9.274c-.633-.633-.633-1.663 0-2.296.316-.316.732-.475 1.148-.475.415 0 .831.158 1.147.475l9.273 9.274c.633.633.633 1.663.001 2.296zm24.277-33.426-26.351 26.228-2.303-2.303 26.074-26.499c.34-.345.811-.543 1.296-.543 1.003 0 1.819.816 1.819 1.828 0 .481-.195.951-.535 1.289z"/><path d="m2.553 22.895 5.035 2.518 2.518 5.035c.169.338.515.552.894.552s.725-.214.895-.553l2.518-5.035 5.035-2.518c.338-.169.552-.515.552-.894s-.214-.725-.553-.895l-5.035-2.518-2.518-5.035c-.34-.678-1.449-.678-1.789 0l-2.518 5.035-5.035 2.518c-.338.17-.552.516-.552.895s.214.725.553.895zm6.227-2.667c.193-.097.351-.254.447-.447l1.773-3.546 1.772 3.545c.097.193.254.351.447.447l3.546 1.773-3.545 1.772c-.193.097-.351.254-.447.447l-1.773 3.546-1.772-3.545c-.097-.193-.254-.351-.447-.447l-3.546-1.773z"/><path d="m10.553 10.895 3.035 1.518 1.518 3.035c.169.338.515.552.894.552s.725-.214.895-.553l1.518-3.035 3.035-1.518c.338-.169.552-.515.552-.894s-.214-.725-.553-.895l-3.035-1.518-1.518-3.035c-.34-.678-1.449-.678-1.789 0l-1.518 3.035-3.035 1.518c-.338.17-.552.516-.552.895s.214.725.553.895zm4.227-1.667c.193-.097.351-.254.447-.447l.773-1.546.772 1.545c.097.193.254.351.447.447l1.546.773-1.545.772c-.193.097-.351.254-.447.447l-.773 1.546-.772-1.545c-.097-.193-.254-.351-.447-.447l-1.546-.773z"/><path d="m22 18c-.553 0-1 .447-1 1s.447 1 1 1h1v1c0 .553.447 1 1 1s1-.447 1-1v-1h1c.553 0 1-.447 1-1s-.447-1-1-1h-1v-1c0-.553-.447-1-1-1s-1 .447-1 1v1z"/><path d="m27 14h1v1c0 .553.447 1 1 1s1-.447 1-1v-1h1c.553 0 1-.447 1-1s-.447-1-1-1h-1v-1c0-.553-.447-1-1-1s-1 .447-1 1v1h-1c-.553 0-1 .447-1 1s.447 1 1 1z"/></g></svg>