<?xml version="1.0" standalone="no"?><!DOCTYPE svg PUBLIC "-//W3C//DTD SVG 1.1//EN" "http://www.w3.org/Graphics/SVG/1.1/DTD/svg11.dtd"><svg t="1767410778645" class="icon" viewBox="0 0 1024 1024" version="1.1" xmlns="http://www.w3.org/2000/svg" p-id="2434" xmlns:xlink="http://www.w3.org/1999/xlink" width="200" height="200"><path d="M691.2 460.8l38.4-64h-70.4l32 64zM300.8 640h70.4l-32-57.6-38.4 57.6zM512 761.6l38.4-57.6H480l32 57.6z m0-486.4l-38.4 64h76.8l-38.4-64zM371.2 396.8H300.8l38.4 64 32-64zM512 0C230.4 0 0 230.4 0 512s230.4 512 512 512 512-230.4 512-512-230.4-512-512-512z m134.4 704h-25.6L512 889.6 409.6 704H192l108.8-185.6L192 339.2h211.2L512 153.6l102.4 179.2 6.4 6.4H832l-108.8 185.6 38.4 51.2 76.8 128h-192z m-57.6-307.2H441.6L371.2 518.4 441.6 640h140.8l70.4-121.6-64-121.6zM704 608l-12.8-25.6-38.4 64h70.4l-19.2-38.4z" fill="#2B2727" p-id="2435"></path></svg>