<?xml version="1.0" standalone="no"?><!DOCTYPE svg PUBLIC "-//W3C//DTD SVG 1.1//EN" "http://www.w3.org/Graphics/SVG/1.1/DTD/svg11.dtd"><svg t="1767515888424" class="icon" viewBox="0 0 1024 1024" version="1.1" xmlns="http://www.w3.org/2000/svg" p-id="16277" xmlns:xlink="http://www.w3.org/1999/xlink" width="200" height="200"><path d="M797.323636 930.909091H226.676364a128 128 0 0 1-116.363637-181.527273l186.181818-407.970909a58.181818 58.181818 0 0 0 5.352728-23.272727V128a34.909091 34.909091 0 0 1 69.818182 0v189.207273a128.698182 128.698182 0 0 1-11.636364 53.294545l-186.181818 407.970909A58.181818 58.181818 0 0 0 226.676364 861.090909h570.647272a58.181818 58.181818 0 0 0 52.829091-82.618182l-186.181818-407.505454a132.189091 132.189091 0 0 1-12.334545-54.225455V128a34.909091 34.909091 0 0 1 69.818181 0v188.741818a59.112727 59.112727 0 0 0 5.585455 25.134546l186.181818 407.505454a128 128 0 0 1-116.363636 181.527273z" p-id="16278"></path><path d="M733.090909 162.909091h-442.181818a34.909091 34.909091 0 0 1 0-69.818182h442.181818a34.909091 34.909091 0 0 1 0 69.818182zM203.869091 593.92h612.305454v69.818182H203.869091z" p-id="16279"></path></svg>