<?xml version="1.0" standalone="no"?><!DOCTYPE svg PUBLIC "-//W3C//DTD SVG 1.1//EN" "http://www.w3.org/Graphics/SVG/1.1/DTD/svg11.dtd"><svg t="1764509456668" class="icon" viewBox="0 0 1024 1024" version="1.1" xmlns="http://www.w3.org/2000/svg" p-id="3072" xmlns:xlink="http://www.w3.org/1999/xlink" width="200" height="200"><path d="M288 900H224c-90.44 0-164-73.56-164-164V288c0-90.44 73.56-164 164-164h576c90.44 0 164 73.56 164 164v256a36 36 0 0 1-72 0V288c0-50.72-41.28-92-92-92H224c-50.72 0-92 41.28-92 92v448c0 50.72 41.28 92 92 92h64a36 36 0 0 1 0 72z" p-id="3073"></path><path d="M928 388H96a36 36 0 0 1 0-72h832a36 36 0 0 1 0 72zM512 900c-9.2 0-18.44-3.52-25.44-10.56l-96-96c-14.04-14.04-14.04-36.84 0-50.92l96-96c14.04-14.04 36.84-14.04 50.92 0 14.04 14.04 14.04 36.84 0 50.92L466.92 768l70.56 70.56c14.04 14.04 14.04 36.84 0 50.92a35.864 35.864 0 0 1-25.44 10.56zM832 900c-9.2 0-18.44-3.52-25.44-10.56-14.04-14.04-14.04-36.84 0-50.92l70.56-70.56-70.56-70.56c-14.04-14.04-14.04-36.84 0-50.92 14.04-14.04 36.84-14.04 50.92 0l96 96c14.04 14.04 14.04 36.84 0 50.92l-96 96a35.864 35.864 0 0 1-25.44 10.56zM640 900c-3.76 0-7.6-0.6-11.4-1.84-18.88-6.28-29.04-26.68-22.76-45.52l64-192c6.28-18.84 26.68-29.04 45.52-22.76 18.88 6.28 29.04 26.68 22.76 45.52l-64 192a36.056 36.056 0 0 1-34.16 24.64z" p-id="3074"></path></svg>