<?xml version="1.0" standalone="no"?><!DOCTYPE svg PUBLIC "-//W3C//DTD SVG 1.1//EN" "http://www.w3.org/Graphics/SVG/1.1/DTD/svg11.dtd"><svg t="1764509522603" class="icon" viewBox="0 0 1024 1024" version="1.1" xmlns="http://www.w3.org/2000/svg" p-id="3229" xmlns:xlink="http://www.w3.org/1999/xlink" width="200" height="200"><path d="M837.48 900H186.52C116.76 900 60 843.24 60 773.48V378.48c0-69.76 56.76-126.52 126.52-126.52 14.56 0 28.24-5.68 38.56-15.96l75-75c23.88-23.88 55.68-37.04 89.44-37.04h117c33.8 0 65.56 13.16 89.44 37.04l90.96 90.96h150.56c69.76 0 126.52 56.76 126.52 126.52v395c0 69.76-56.76 126.52-126.52 126.52z m-448-704c-14.56 0-28.24 5.68-38.56 15.96L275.92 286.96C252.04 310.84 220.24 324 186.48 324c-30.04 0-54.52 24.44-54.52 54.52v395c0 30.04 24.44 54.52 54.52 54.52h651c30.04 0 54.52-24.44 54.52-54.52V378.52c0-30.04-24.44-54.52-54.52-54.52H672c-9.56 0-18.72-3.8-25.44-10.56l-101.48-101.48c-10.28-10.28-24-15.96-38.56-15.96H389.52z" p-id="3230"></path><path d="M448 740c-108.08 0-196-87.92-196-196s87.92-196 196-196 196 87.92 196 196-87.92 196-196 196z m0-320c-68.36 0-124 55.64-124 124s55.64 124 124 124 124-55.64 124-124-55.64-124-124-124zM896 196h-160a36 36 0 0 1 0-72h160a36 36 0 0 1 0 72z" p-id="3231"></path></svg>