<?xml version="1.0" standalone="no"?><!DOCTYPE svg PUBLIC "-//W3C//DTD SVG 1.1//EN" "http://www.w3.org/Graphics/SVG/1.1/DTD/svg11.dtd"><svg t="1763947226153" class="icon" viewBox="0 0 1024 1024" version="1.1" xmlns="http://www.w3.org/2000/svg" p-id="3072" xmlns:xlink="http://www.w3.org/1999/xlink" width="200" height="200"><path d="M192.64 905.76c-12.96 0-26.16-2.6-38.92-7.88-38.08-15.76-61.72-51.16-61.72-92.4V256c0-90.44 73.56-164 164-164h512c90.44 0 164 73.56 164 164v320c0 90.44-73.56 164-164 164h-331c-24.56 0-47.68 9.56-65.04 26.96l-109.24 109.24c-19.36 19.36-44.32 29.56-70.08 29.56zM256 164c-50.72 0-92 41.28-92 92v549.48c0 17.36 13.24 24.2 17.28 25.88s18.24 6.2 30.52-6.08l109.24-109.24C352 685.08 393.2 668 437 668H768c50.72 0 92-41.28 92-92V256c0-50.72-41.28-92-92-92H256z" p-id="3073"></path><path d="M384 416m-56 0a56 56 0 1 0 112 0 56 56 0 1 0-112 0Z" p-id="3074"></path><path d="M640 416m-56 0a56 56 0 1 0 112 0 56 56 0 1 0-112 0Z" p-id="3075"></path></svg>