<?xml version="1.0" standalone="no"?><!DOCTYPE svg PUBLIC "-//W3C//DTD SVG 1.1//EN" "http://www.w3.org/Graphics/SVG/1.1/DTD/svg11.dtd"><svg t="1764509341098" class="icon" viewBox="0 0 1024 1024" version="1.1" xmlns="http://www.w3.org/2000/svg" p-id="2915" xmlns:xlink="http://www.w3.org/1999/xlink" width="200" height="200"><path d="M512 548c-125.72 0-228-102.28-228-228s102.28-228 228-228 228 102.28 228 228-102.28 228-228 228z m0-384c-86 0-156 70-156 156s70 156 156 156 156-70 156-156-70-156-156-156z" p-id="2916"></path><path d="M896 932a36 36 0 0 1-36-36c0-191.88-156.12-348-348-348s-348 156.12-348 348a36 36 0 0 1-72 0c0-231.6 188.4-420 420-420s420 188.4 420 420a36 36 0 0 1-36 36z" p-id="2917"></path></svg>