<?xml version="1.0" standalone="no"?><!DOCTYPE svg PUBLIC "-//W3C//DTD SVG 1.1//EN" "http://www.w3.org/Graphics/SVG/1.1/DTD/svg11.dtd"><svg height="72" node-id="1" sillyvg="true" template-height="72" template-width="96" version="1.1" viewBox="0 0 96 72" width="96" xmlns="http://www.w3.org/2000/svg" xmlns:xlink="http://www.w3.org/1999/xlink"><defs node-id="32"></defs><g node-id="114"><g node-id="115"><path d="M 73.94 68.86 C 81.30 61.50 68.94 49.41 53.88 34.33 C 38.82 19.25 26.71 6.91 19.35 14.33 C 11.99 21.75 16.71 41.35 31.79 56.42 C 46.87 71.49 66.57 76.22 73.94 68.86 Z" fill="#a37ab5" fill-rule="nonzero" group-id="1,2" node-id="38" stroke="none" target-height="69.31" target-width="69.310005" target-x="11.99" target-y="6.91"></path><g node-id="116"><path d="M 33.82 54.39 C 19.46 40.00 14.50 21.46 20.43 13.38 C 20.04 13.65 19.68 13.95 19.35 14.28 C 12.00 21.64 16.71 41.35 31.79 56.42 C 46.87 71.49 66.57 76.22 73.94 68.86 C 74.26 68.52 74.56 68.16 74.83 67.78 C 66.75 73.72 48.18 68.75 33.82 54.39 Z" fill="#7f5d99" fill-opacity="0.6" fill-rule="nonzero" group-id="1,2,3" node-id="42" stroke="none" target-height="62.84" target-width="62.83" target-x="12" target-y="13.38"></path></g><path d="M 67.53 34.71 C 68.25 33.17 73.01 31.90 73.18 31.62 C 73.35 31.34 73.03 30.31 73.18 30.16 C 73.33 30.01 74.77 30.27 74.91 30.16 C 75.05 30.05 74.65 29.16 74.91 28.80 C 75.17 28.44 76.73 28.93 77.08 28.54 C 77.83 27.69 78.24 20.74 79.45 19.08 C 80.66 17.42 96.07 17.00 95.71 16.53 C 92.05 12.25 70.00 7.29 67.33 8.93 C 64.66 10.57 60.98 16.01 60.33 15.93 C 54.33 14.69 48.27 15.58 47.47 15.93 C 45.82 17.23 44.30 18.69 42.93 20.28 C 41.93 21.43 35.24 25.61 33.23 27.19 L 33.01 27.37 C 32.93 27.43 32.86 27.50 32.79 27.57 C 29.32 31.04 32.73 40.08 40.41 47.75 C 48.09 55.42 57.11 58.83 60.59 55.37 C 70.17 45.87 66.87 36.14 67.53 34.71 Z" fill="#7f5d99" fill-rule="nonzero" group-id="1,2" node-id="45" stroke="none" target-height="51.54" target-width="66.75" target-x="29.32" target-y="7.29"></path><g node-id="117"><path d="M 60.55 55.41 C 70.17 45.87 66.87 36.14 67.55 34.71 C 68.23 33.28 73.00 31.90 73.18 31.62 C 73.36 31.34 73.03 30.31 73.18 30.16 C 73.33 30.01 74.77 30.27 74.91 30.16 C 75.05 30.05 74.65 29.16 74.91 28.80 C 75.17 28.44 76.73 28.93 77.08 28.54 C 77.83 27.69 78.24 20.74 79.45 19.08 C 80.66 17.42 95.24 17.00 95.70 16.57 C 89.59 15.05 78.15 15.22 75.31 15.57 C 71.87 15.98 72.09 16.80 70.72 19.50 C 69.35 22.20 68.72 21.56 67.57 22.50 C 66.42 23.44 68.23 25.32 66.57 25.04 C 64.91 24.76 65.00 25.27 65.00 26.78 C 65.00 28.29 61.13 28.26 59.40 30.01 C 56.10 33.35 61.54 38.30 54.56 36.01 C 47.05 33.50 41.11 26.17 39.00 23.23 C 36.80 24.73 34.32 26.37 33.22 27.23 L 33.00 27.41 C 32.92 27.47 32.85 27.54 32.78 27.61 C 29.31 31.08 32.72 40.12 40.40 47.79 C 48.08 55.46 57.07 58.87 60.55 55.41 Z" fill="#7f5d99" fill-opacity="0.6" fill-rule="nonzero" group-id="1,2,4" node-id="49" stroke="none" target-height="43.82" target-width="66.39" target-x="29.310001" target-y="15.05"></path></g><path d="M 48.55 39.66 C 43.98 35.12 40.69 29.46 39.00 23.25 C 36.81 24.74 34.34 26.37 33.24 27.25 L 33.02 27.43 C 32.94 27.49 32.87 27.56 32.80 27.63 C 29.33 31.10 32.74 40.14 40.42 47.81 C 48.10 55.48 57.12 58.89 60.60 55.43 C 62.44 53.65 63.99 51.59 65.18 49.33 C 58.88 47.64 53.14 44.30 48.55 39.66 Z" fill="#3c3c3c" fill-rule="nonzero" group-id="1,2" node-id="52" stroke="none" target-height="35.64" target-width="35.85" target-x="29.33" target-y="23.25"></path><g node-id="118"><path d="M 60.55 55.41 C 64.70 51.56 67.21 46.27 67.55 40.62 C 65.37 50.39 55.37 56.51 42.28 45.73 C 33.59 38.56 31.65 33.38 31.48 30.38 C 30.88 34.73 34.28 41.69 40.39 47.79 C 48.05 55.47 57.07 58.87 60.55 55.41 Z" fill="#3c3c3c" fill-opacity="0.2" fill-rule="nonzero" group-id="1,2,5" node-id="56" stroke="none" target-height="28.49" target-width="36.670006" target-x="30.88" target-y="30.38"></path></g><g node-id="119"><path d="M 38.38 50.47 C 37.23 49.33 34.52 46.41 34.03 44.07 C 33.37 40.97 36.47 37.74 37.44 36.82 C 38.41 35.90 41.21 33.46 43.44 34.05 C 45.52 34.61 48.62 37.55 49.86 38.78 C 51.10 40.01 54.31 43.42 54.64 45.36 C 55.03 47.66 52.14 50.86 51.25 51.79 C 50.00 53.13 47.49 55.33 45.37 55.00 C 42.78 54.70 39.37 51.46 38.38 50.47 Z M 47.85 40.82 C 45.40 38.36 43.47 37.03 42.72 36.82 C 42.25 36.82 40.39 37.72 38.65 39.69 C 37.37 41.13 36.65 42.61 36.84 43.46 C 37.03 44.31 38.20 46.22 40.41 48.46 C 42.62 50.70 44.84 52.09 45.75 52.22 C 46.01 52.22 47.03 51.85 48.53 50.47 C 50.69 48.47 51.84 46.36 51.83 45.83 C 51.82 45.30 50.37 43.34 47.85 40.82 Z" fill="#3c3c3c" fill-opacity="0.2" fill-rule="nonzero" group-id="1,2,6" node-id="61" stroke="none" target-height="21.870003" target-width="21.66" target-x="33.37" target-y="33.46"></path></g><path d="M 38.38 49.46 C 37.23 48.31 34.52 45.40 34.03 43.05 C 33.38 39.96 36.47 36.72 37.44 35.81 C 38.41 34.90 41.21 32.44 43.44 33.04 C 45.52 33.59 48.62 36.53 49.86 37.77 C 51.10 39.01 54.31 42.40 54.64 44.35 C 55.03 46.64 52.14 49.85 51.25 50.78 C 50.00 52.11 47.50 54.31 45.37 54.00 C 42.78 53.68 39.36 50.44 38.38 49.46 Z M 47.85 39.80 C 45.40 37.35 43.47 36.01 42.72 35.80 C 42.25 35.80 40.39 36.70 38.65 38.66 C 37.37 40.10 36.65 41.58 36.84 42.44 C 37.03 43.30 38.20 45.19 40.41 47.44 C 42.62 49.69 44.84 51.08 45.75 51.20 C 46.01 51.20 47.03 50.84 48.53 49.46 C 50.69 47.46 51.84 45.35 51.83 44.82 C 51.82 44.29 50.37 42.32 47.85 39.80 Z" fill="#f9b332" fill-rule="nonzero" group-id="1,2" node-id="64" stroke="none" target-height="21.870003" target-width="21.649998" target-x="33.38" target-y="32.44"></path><g node-id="120"><path d="M 42.78 35.29 C 41.78 35.29 40.91 34.89 40.92 34.40 C 40.93 33.91 41.75 33.50 42.78 33.50 C 43.81 33.50 44.65 33.90 44.65 34.40 C 44.65 34.90 43.82 35.29 42.78 35.29 Z" fill="#3c3c3c" fill-rule="nonzero" group-id="1,2,7" node-id="68" stroke="none" target-height="1.7900009" target-width="3.7399979" target-x="40.91" target-y="33.5"></path></g><g node-id="121"><path d="M 45.80 53.39 C 44.80 53.39 43.93 52.99 43.93 52.50 C 43.93 52.01 44.77 51.60 45.80 51.60 C 46.83 51.60 47.67 52.00 47.67 52.50 C 47.67 53.00 46.83 53.39 45.80 53.39 Z" fill="#3c3c3c" fill-rule="nonzero" group-id="1,2,8" node-id="73" stroke="none" target-height="1.7900009" target-width="3.7400017" target-x="43.93" target-y="51.6"></path></g><g node-id="122"><path d="M 40.61 36.25 C 40.33 36.55 39.89 36.64 39.51 36.49 C 39.14 36.34 38.89 35.97 38.89 35.56 C 38.89 35.15 39.14 34.78 39.51 34.63 C 39.89 34.48 40.33 34.57 40.61 34.87 C 40.98 35.26 40.98 35.86 40.61 36.25 Z" fill="#3c3c3c" fill-rule="nonzero" group-id="1,2,9" node-id="78" stroke="none" target-height="2.1606178" target-width="2.09206" target-x="38.886192" target-y="34.47969"></path></g><g node-id="123"><path d="M 49.28 52.05 C 49.00 52.35 48.56 52.44 48.18 52.29 C 47.81 52.14 47.56 51.77 47.56 51.36 C 47.56 50.95 47.81 50.58 48.18 50.43 C 48.56 50.28 49.00 50.37 49.28 50.67 C 49.65 51.06 49.65 51.66 49.28 52.05 Z" fill="#3c3c3c" fill-rule="nonzero" group-id="1,2,10" node-id="83" stroke="none" target-height="2.1606216" target-width="2.0920677" target-x="47.556187" target-y="50.27969"></path></g><g node-id="124"><g node-id="126"><path d="M 95.68 16.58 L 95.69 16.57 L 95.68 16.58 L 95.68 16.58 Z" fill="#7f5d99" fill-opacity="0.4" fill-rule="nonzero" group-id="1,2,11,13" node-id="90" stroke="none" target-height="0.010000229" target-width="0.010002136" target-x="95.68" target-y="16.57"></path></g><path d="M 74.13 15.74 C 74.47 15.67 74.86 15.61 75.31 15.55 C 78.15 15.23 89.58 15.05 95.69 16.55 C 95.69 16.55 95.69 16.55 95.69 16.55 C 92.30 12.55 73.00 8.00 68.16 8.68 C 69.00 9.38 71.00 12.00 74.13 15.74 Z" fill="#7f5d99" fill-opacity="0.4" fill-rule="nonzero" group-id="1,2,11,14" node-id="95" stroke="none" target-height="8.549999" target-width="27.529999" target-x="68.16" target-y="8"></path></g><g node-id="125"><path d="M 59.00 30.47 C 59.12 30.31 59.25 30.15 59.39 30.01 C 61.12 28.26 64.97 28.29 64.99 26.78 C 65.01 25.27 64.87 24.70 66.55 25.00 C 66.76 25.06 66.99 25.04 67.18 24.93 C 64.37 22.24 60.83 16.72 60.33 15.93 L 60.33 15.93 C 54.33 14.69 48.27 15.58 47.47 15.93 L 47.38 15.93 C 47.91 17.41 56.25 28.00 59.00 30.47 Z" fill="#7f5d99" fill-opacity="0.4" fill-rule="nonzero" group-id="1,2,12" node-id="101" stroke="none" target-height="15.779998" target-width="19.800003" target-x="47.379997" target-y="14.69"></path></g><path d="M 48.59 6.51 C 42.80 6.91 42.48 7.24 42.08 13.03 C 41.68 7.24 41.36 6.91 35.57 6.51 C 41.36 6.11 41.68 5.79 42.08 0.00 C 42.48 5.79 42.80 6.11 48.59 6.51 Z" fill="#f7cc2b" fill-rule="nonzero" group-id="1,2" node-id="104" stroke="none" target-height="13.03" target-width="13.019997" target-x="35.57" target-y="0"></path><path d="M 85.47 49.38 C 79.68 49.78 79.36 50.11 78.96 55.90 C 78.56 50.11 78.24 49.78 72.45 49.38 C 78.24 48.98 78.56 48.66 78.96 42.87 C 79.36 48.66 79.68 49.00 85.47 49.38 Z" fill="#f7cc2b" fill-rule="nonzero" group-id="1,2" node-id="106" stroke="none" target-height="13.030003" target-width="13.020004" target-x="72.45" target-y="42.87"></path><path d="M 91.00 41.66 C 87.20 41.92 87.00 42.14 86.73 45.93 C 86.47 42.14 86.26 41.93 82.46 41.66 C 86.26 41.40 86.46 41.19 86.73 37.39 C 87.00 41.19 87.20 41.40 91.00 41.66 Z" fill="#f7cc2b" fill-rule="nonzero" group-id="1,2" node-id="108" stroke="none" target-height="8.540001" target-width="8.540001" target-x="82.46" target-y="37.39"></path><path d="M 5.52 43.77 C 11.31 44.17 11.64 44.49 12.04 50.28 C 12.44 44.49 12.76 44.17 18.55 43.77 C 12.76 43.37 12.44 43.04 12.04 37.25 C 11.64 43.00 11.31 43.37 5.52 43.77 Z" fill="#f7cc2b" fill-rule="nonzero" group-id="1,2" node-id="110" stroke="none" target-height="13.029999" target-width="13.029999" target-x="5.52" target-y="37.25"></path><path d="M 0.00 36.00 C 3.79 36.27 4.00 36.48 4.27 40.27 C 4.53 36.48 4.74 36.27 8.54 36.00 C 4.74 35.74 4.54 35.53 4.27 31.74 C 4.00 35.57 3.79 35.78 0.00 36.00 Z" fill="#f7cc2b" fill-rule="nonzero" group-id="1,2" node-id="112" stroke="none" target-height="8.530003" target-width="8.54" target-x="0" target-y="31.739998"></path></g></g></svg>