<?xml version="1.0" standalone="no"?><!DOCTYPE svg PUBLIC "-//W3C//DTD SVG 1.1//EN" "http://www.w3.org/Graphics/SVG/1.1/DTD/svg11.dtd"><svg t="1767369188700" class="icon" viewBox="0 0 1024 1024" version="1.1" xmlns="http://www.w3.org/2000/svg" p-id="1764" xmlns:xlink="http://www.w3.org/1999/xlink" width="200" height="200"><path d="M635.1 217l-284.7 34.4L103 531.6l119.6 228.1L597.4 808l219.5-35.6 94.2-103.6 9-278.9-285-172.9z m229.8 187.2L619.5 516l-226.9-10.2 36.9-65.5-42.6-151.6 239.2-29.1 238.8 144.6z m-513.7-91.4l34 122.1-148.7 263-84-160.6 198.7-224.5z m245.4 453.9l-328.1-42.2 100.8-178.6 237.2 10.6 52.8 90.5 101.6 92.6-164.3 27.1z m208.5-42.6L692 621.3l-43-73.7 228.1-104-7 208.5-65 72z m0 0" fill="" p-id="1765"></path><path d="M597.4 811.1l-0.4-0.1-376.3-48.5L99.4 531.1l249.5-282.6 1.1-0.1 285.7-34.5 0.9 0.5 286.6 173.8-9.1 281.8-0.7 0.8-94.9 104.4-221.1 35.9z m-372.9-54.2L597.3 805l218.1-35.4 92.8-102 8.9-276.1-282.7-171.4-282.5 34.1L106.6 532l117.9 224.9z m372.1 12.8l-0.4-0.1-332.5-42.8 103.9-184.1 240.6 10.8 53.4 91.5 105.8 96.4-170.8 28.3z m-323.3-47.6l323.2 41.6 157.7-26-97.3-88.7-0.2-0.4-52-89.1L370.9 549l-97.6 173.1z m532 6.2L689.6 623.2l-0.2-0.4-44.7-76.6 235.6-107.4-7.2 214.4-67.8 75.1zM694.4 619.4l110.5 100.5 62.4-69 6.8-202.6-220.8 100.6 41.1 70.5z m-458 84.7l-87.5-167.3 203.7-230.1 35.8 128.6-152 268.8z m-80.2-166.4l80.5 153.8 145.3-257L349.8 319 156.2 537.7zM620.1 519h-0.7l-231.8-10.5 38.6-68.7L383 286.1l243.7-29.6 0.9 0.5 243.7 147.5L620.1 519z m-222.5-16l221.3 10 239.5-109.2-233-141.1-234.7 28.5 42 149.4-35.1 62.4z" fill="" p-id="1766"></path></svg>